# xmcd
#
# Track frame offsets:
#	150
#	11612
#	28802
#	43977
#	60010
#	81642
#	91760
#	104205
#	114157
#	123535
#	133822
#	148170
#	165195
#	205732
#	216820
#
# Disc length: 3172
#
# Revision: 1
# Processed by: cddbd v1.5.1PL0 Copyright (c) Steve Scherf et al.
# Submitted via: EasyCDDAExtractor 4.5.0.2
# Normalized: r0:DSETVAR1
#
DISCID=d30c620f
DTITLE=Various Artist - Bues story H.S.
DYEAR=1998
DGENRE=Blues
TTITLE0=Nick Lowe - So It Goes
TTITLE1=Greg Kihn - Jeopardy
TTITLE2=Elvis Costello - This Year's Girl
TTITLE3=Moon Martin - Cadillac Walk
TTITLE4=Iggy Pop - Easy Rider
TTITLE5=Carl Perkins - Blue Suede Shoes
TTITLE6=The Kingsmen - Louie Louie
TTITLE7=Donovan - Universal Soldier
TTITLE8=Santana - Let's Get Ourselves Together
TTITLE9=Doobie Brothers - Quicksilver Princess
TTITLE10=Status Quo - Pictures Of Matchstickmen
TTITLE11=Marc Bolan and The T.rex - Telegram Sam
TTITLE12=The Stray Cats - Rock This Town
TTITLE13=Eric Claton - Snake Drive
TTITLE14=Chuck Berry - Johnny B. Goode
EXTD=
EXTT0=
EXTT1=
EXTT2=
EXTT3=
EXTT4=
EXTT5=
EXTT6=
EXTT7=
EXTT8=
EXTT9=
EXTT10=
EXTT11=
EXTT12=
EXTT13=
EXTT14=
PLAYORDER=
